<svg xmlns="http://www.w3.org/2000/svg" width="22.000000pt" height="22.000000pt" viewBox="0 0 214.000000 244.000000" preserveAspectRatio="xMidYMid meet">
<g transform="translate(-35.000000,264.000000) scale(0.100000,-0.100000)" fill="currentColor" stroke="none">
<path d="M1290 2109 c-86 -12 -209 -55 -279 -96 -85 -51 -210 -169 -265 -252 -59 -88 -102 -197 -121 -306 -21 -124 -21 -125 23 -82 l38 37 37 -37 37 -38 0 36 c0 20 9 70 20 113 58 229 231 403 465 467 101 27 264 23 365 -10 238 -76 414 -292 445 -544 l8 -59 36 36 37 36 32 -32 32 -33 0 46 c0 61 -34 189 -69 266 -87 185 -250 339 -435 408 -125 47 -276 64 -406 44z"></path><path d="M1098 1622 c-14 -9 -36 -30 -48 -45 -26 -32 -60 -117 -60 -148 0 -18 5 -16 46 16 88 67 161 67 249 0 49 -38 53 -34 30 41 -37 124 -138 188 -217 136z"></path><path d="M1598 1622 c-14 -9 -36 -30 -48 -45 -26 -32 -60 -117 -60 -148 0 -18 5 -16 46 16 88 67 161 67 249 0 49 -38 53 -34 30 41 -37 124 -138 188 -217 136z"></path><path d="M652 1227 l-32 -33 105 -104 c99 -99 104 -105 88 -122 -16 -18 -23 -13 -148 112 l-131 130 -32 -33 -32 -33 130 -129 c123 -123 129 -130 113 -147 -16 -18 -22 -14 -123 87 l-106 105 -32 -33 -32 -33 105 -104 c99 -99 104 -105 88 -122 -16 -18 -19 -16 -73 37 l-56 55 -32 -33 -32 -33 113 -112 c152 -150 222 -180 348 -148 97 25 159 78 201 173 19 41 22 72 26 206 l4 157 -61 0 -61 0 0 -50 c0 -27 -3 -50 -7 -50 -4 0 -73 65 -153 145 l-146 145 -32 -33z"></path><path d="M1990 1115 c-80 -80 -148 -145 -152 -145 -5 0 -8 23 -8 50 l0 50 -61 0 -61 0 4 -162 c4 -186 16 -226 85 -295 60 -60 122 -86 207 -87 106 0 148 23 283 156 l113 112 -32 33 -32 33 -56 -55 c-53 -52 -57 -54 -73 -38 -16 17 -12 23 88 123 l105 106 -33 32 -33 32 -104 -105 c-99 -99 -105 -104 -122 -88 -18 16 -13 23 112 148 l130 131 -33 32 -33 32 -129 -130 c-123 -123 -130 -129 -147 -113 -18 16 -14 22 87 123 l105 106 -33 32 -33 32 -144 -145z"></path><path d="M1210 991 l0 -80 58 -17 c33 -10 92 -17 142 -17 50 0 109 7 143 17 l57 17 0 79 c0 44 -2 80 -4 80 -2 0 -25 -9 -51 -21 -29 -13 -78 -23 -124 -26 -73 -5 -117 4 -203 42 -16 6 -18 0 -18 -74z"></path><path d="M1163 635 l-31 -64 54 -16 c144 -42 314 -41 449 1 l53 17 -32 61 c-17 34 -32 63 -33 65 -1 1 -30 -4 -65 -13 -80 -20 -214 -20 -293 -1 -33 8 -62 14 -65 14 -3 0 -19 -29 -37 -64z"></path></g></svg>